<?xml version="1.0" encoding="UTF-8"?>
<svg width="16px" height="16px" viewBox="0 0 16 16" version="1.1" xmlns="http://www.w3.org/2000/svg" xmlns:xlink="http://www.w3.org/1999/xlink">
    <!-- Generator: Sketch 52.5 (67469) - http://www.bohemiancoding.com/sketch -->
    <title>Fill 1</title>
    <desc>Created with Sketch.</desc>
    <g id="Demo" stroke="none" stroke-width="1" fill="none" fill-rule="evenodd">
        <g id="01.1.-Menu---Mobile" transform="translate(-289.000000, -23.000000)" fill="#FFFFFF">
            <path d="M304.364584,23.635416 L304.364584,23.635416 C304.013653,23.2844854 303.444683,23.2844854 303.093752,23.635416 L297,29.729168 L290.90625,23.6354164 C290.555319,23.2844856 289.986348,23.2844854 289.635417,23.635416 L289.635417,23.635416 C289.284486,23.9863464 289.284486,24.5553172 289.635416,24.906248 C289.635416,24.9062481 289.635416,24.9062482 289.635416,24.9062483 L295.729168,31 L289.635417,37.0937501 C289.284486,37.4446809 289.284486,38.0136523 289.635417,38.3645833 C289.635417,38.3645833 289.635417,38.3645833 289.635417,38.3645833 L289.635417,38.3645833 C289.986348,38.7155142 290.555319,38.7155142 290.90625,38.3645833 C290.90625,38.3645833 290.90625,38.3645833 290.90625,38.3645833 L297,32.270832 L303.093752,38.3645837 C303.444682,38.7155142 304.013653,38.7155142 304.364584,38.3645837 C304.364584,38.3645836 304.364584,38.3645834 304.364584,38.3645833 L304.364584,38.3645833 C304.715515,38.0136524 304.715514,37.4446812 304.364584,37.0937504 L298.270832,31 L304.364584,24.906248 C304.715515,24.5553174 304.715515,23.9863466 304.364584,23.635416 Z" id="Fill-1"></path>
        </g>
    </g>
</svg>