<?xml version="1.0" encoding="UTF-8"?>
<svg width="30px" height="30px" viewBox="0 0 30 30" version="1.1" xmlns="http://www.w3.org/2000/svg" xmlns:xlink="http://www.w3.org/1999/xlink">
    <!-- Generator: Sketch 52.5 (67469) - http://www.bohemiancoding.com/sketch -->
    <title>Fill 1</title>
    <desc>Created with Sketch.</desc>
    <g id="Page-1" stroke="none" stroke-width="1" fill="none" fill-rule="evenodd">
        <g id="7.5.-Xem-video" transform="translate(-1191.000000, -425.000000)" fill="#ffffff">
            <path d="M1191.78474,451.397818 C1190.76022,452.336968 1190.73887,453.297448 1191.72071,454.279288 C1192.70255,455.261128 1193.66303,455.239783 1194.60218,454.215255 L1206,442.945504 L1217.39782,454.215255 C1218.33697,455.239783 1219.29744,455.261128 1220.27929,454.279288 C1221.26113,453.297448 1221.23978,452.336968 1220.21525,451.397818 L1208.9455,440.000001 L1220.21525,428.602185 C1221.23978,427.663033 1221.26113,426.702556 1220.27929,425.72071 C1219.29744,424.738873 1218.33697,424.760216 1217.39782,425.784747 L1206,437.054498 L1194.60218,425.784747 C1193.66303,424.760216 1192.70255,424.738873 1191.72071,425.72071 C1190.73887,426.702556 1190.76022,427.663033 1191.78474,428.602185 L1203.0545,440.000001 L1191.78474,451.397818 Z" id="Fill-1"></path>
        </g>
    </g>
</svg>