<?xml version="1.0" encoding="UTF-8"?>
<svg width="13px" height="12px" viewBox="0 0 13 12" version="1.1" xmlns="http://www.w3.org/2000/svg" xmlns:xlink="http://www.w3.org/1999/xlink">
    <!-- Generator: Sketch 52.5 (67469) - http://www.bohemiancoding.com/sketch -->
    <title>Fill 1</title>
    <desc>Created with Sketch.</desc>
    <g id="Page-1" stroke="none" stroke-width="1" fill="none" fill-rule="evenodd">
        <g id="1.-Trang-chủ--Ver3-Copy-2" transform="translate(-282.000000, -3222.000000)" fill="#FFFFFF">
            <g id="Group-20" transform="translate(0.000000, 3030.000000)">
                <path d="M285.257611,194.671876 L282.654567,194.671876 C282.471896,194.671876 282.317136,194.736978 282.190281,194.867188 C282.063426,194.997396 282,195.15625 282,195.34375 L282,203.34375 C282,203.520834 282.063426,203.674479 282.190281,203.804688 C282.317136,203.934896 282.471896,204 282.654567,204 L285.257611,204 C285.430133,204 285.579819,203.934896 285.706675,203.804688 C285.833529,203.674479 285.896956,203.520834 285.896956,203.34375 L285.896956,195.34375 C285.896956,195.15625 285.833529,194.997396 285.706675,194.867188 C285.579819,194.736978 285.430133,194.671876 285.257611,194.671876 Z M294.345434,192 L289.154567,192 C288.971897,192 288.817135,192.065104 288.690282,192.195312 C288.563426,192.325522 288.500001,192.484374 288.500001,192.671876 L288.500001,194.671876 L286.551523,194.671876 L286.551523,204 L294.345434,204 C294.528104,204 294.682864,203.934896 294.809719,203.804688 C294.936573,203.674479 295,203.520834 295,203.34375 L295,192.671876 C295,192.484374 294.936573,192.325522 294.809719,192.195312 C294.682864,192.065104 294.528104,192 294.345434,192 Z M289.154567,202 C288.971897,202 288.817135,201.934896 288.690282,201.804688 C288.563426,201.674478 288.500001,201.520834 288.500001,201.34375 C288.500001,201.15625 288.563426,200.997396 288.690282,200.867188 C288.817135,200.736978 288.971897,200.671876 289.154567,200.671876 C289.327089,200.671876 289.476775,200.736978 289.60363,200.867188 C289.730484,200.997396 289.793911,201.15625 289.793911,201.34375 C289.793911,201.520834 289.730484,201.674478 289.60363,201.804688 C289.476775,201.934896 289.327089,202 289.154567,202 Z M289.154567,199.34375 C288.971897,199.34375 288.817135,199.278646 288.690282,199.148438 C288.563426,199.018228 288.500001,198.859376 288.500001,198.671876 C288.500001,198.484374 288.563426,198.325522 288.690282,198.195312 C288.817135,198.065104 288.971897,198 289.154567,198 C289.327089,198 289.476775,198.065104 289.60363,198.195312 C289.730484,198.325522 289.793911,198.484374 289.793911,198.671876 C289.793911,198.859376 289.730484,199.018228 289.60363,199.148438 C289.476775,199.278646 289.327089,199.34375 289.154567,199.34375 Z M291.103044,202 C290.920375,202 290.765613,201.934896 290.638759,201.804688 C290.511904,201.674478 290.448479,201.520834 290.448479,201.34375 C290.448479,201.15625 290.511904,200.997396 290.638759,200.867188 C290.765613,200.736978 290.920375,200.671876 291.103044,200.671876 C291.275567,200.671876 291.425253,200.736978 291.552108,200.867188 C291.678962,200.997396 291.742389,201.15625 291.742389,201.34375 C291.742389,201.520834 291.678962,201.674478 291.552108,201.804688 C291.425253,201.934896 291.275567,202 291.103044,202 Z M291.103044,199.34375 C290.920375,199.34375 290.765613,199.278646 290.638759,199.148438 C290.511904,199.018228 290.448479,198.859376 290.448479,198.671876 C290.448479,198.484374 290.511904,198.325522 290.638759,198.195312 C290.765613,198.065104 290.920375,198 291.103044,198 C291.275567,198 291.425253,198.065104 291.552108,198.195312 C291.678962,198.325522 291.742389,198.484374 291.742389,198.671876 C291.742389,198.859376 291.678962,199.018228 291.552108,199.148438 C291.425253,199.278646 291.275567,199.34375 291.103044,199.34375 Z M293.051522,202 C292.868852,202 292.714091,201.934896 292.587237,201.804688 C292.460381,201.674478 292.396956,201.520834 292.396956,201.34375 C292.396956,201.15625 292.460381,200.997396 292.587237,200.867188 C292.714091,200.736978 292.868852,200.671876 293.051522,200.671876 C293.224044,200.671876 293.37373,200.736978 293.500586,200.867188 C293.62744,200.997396 293.690867,201.15625 293.690867,201.34375 C293.690867,201.520834 293.62744,201.674478 293.500586,201.804688 C293.37373,201.934896 293.224044,202 293.051522,202 Z M293.051522,199.34375 C292.868852,199.34375 292.714091,199.278646 292.587237,199.148438 C292.460381,199.018228 292.396956,198.859376 292.396956,198.671876 C292.396956,198.484374 292.460381,198.325522 292.587237,198.195312 C292.714091,198.065104 292.868852,198 293.051522,198 C293.224044,198 293.37373,198.065104 293.500586,198.195312 C293.62744,198.325522 293.690867,198.484374 293.690867,198.671876 C293.690867,198.859376 293.62744,199.018228 293.500586,199.148438 C293.37373,199.278646 293.224044,199.34375 293.051522,199.34375 Z M293.690867,194.4375 L293.690867,196 L289.793911,196 L289.793911,193.34375 L293.690867,193.34375 L293.690867,194.4375 Z" id="Fill-1"></path>
            </g>
        </g>
    </g>
</svg>