<?xml version="1.0" encoding="UTF-8"?>
<svg width="7px" height="12px" viewBox="0 0 7 12" version="1.1" xmlns="http://www.w3.org/2000/svg" xmlns:xlink="http://www.w3.org/1999/xlink">
    <!-- Generator: Sketch 52.5 (67469) - http://www.bohemiancoding.com/sketch -->
    <title>Fill 1</title>
    <desc>Created with Sketch.</desc>
    <g id="Page-1" stroke="none" stroke-width="1" fill="none" fill-rule="evenodd">
        <g id="1.-Trang-chủ--Ver3-Copy-2" transform="translate(-157.000000, -3274.000000)" fill="#FFFFFF">
            <g id="Group-20" transform="translate(0.000000, 3030.000000)">
                <path d="M157,248.385334 L159.081081,248.385334 L159.081081,246.668162 C159.081081,246.668162 159.10473,246.447654 159.152027,246.00663 C159.199325,245.565605 159.459457,245.133971 159.932432,244.711714 C160.415919,244.280073 160.986108,244.047836 161.643018,244.014993 C162.299929,243.982151 163.085582,244.003264 164,244.078331 L164,245.992554 L162.644144,245.992554 C162.644144,245.992554 162.53904,246.001938 162.328829,246.020706 C162.118618,246.039472 161.945196,246.114538 161.808558,246.245909 C161.682431,246.38666 161.611486,246.536793 161.595721,246.696314 C161.579954,246.855833 161.572072,246.95905 161.572072,247.005966 L161.572072,248.385334 L163.921172,248.385334 L163.621622,250.510684 L161.556305,250.510684 L161.556305,256 L159.081081,256 L159.081081,250.510684 L157,250.510684 L157,248.385334 Z" id="Fill-1"></path>
            </g>
        </g>
    </g>
</svg>