<?xml version="1.0" encoding="UTF-8"?>
<svg width="19px" height="12px" viewBox="0 0 19 12" version="1.1" xmlns="http://www.w3.org/2000/svg" xmlns:xlink="http://www.w3.org/1999/xlink">
    <!-- Generator: Sketch 52.5 (67469) - http://www.bohemiancoding.com/sketch -->
    <title>Fill 1</title>
    <desc>Created with Sketch.</desc>
    <g id="Page-1" stroke="none" stroke-width="1" fill="none" fill-rule="evenodd">
        <g id="1.-Trang-chủ--Ver3-Copy-2" transform="translate(-179.000000, -3274.000000)" fill="#FFFFFF">
            <g id="Group-20" transform="translate(0.000000, 3030.000000)">
                <path d="M198,249.145729 L196.27825,249.145729 L196.27825,247.417083 L194.556503,247.417083 L194.556503,249.145729 L192.814499,249.145729 L192.814499,250.854271 L194.556503,250.854271 L194.556503,252.562812 L196.27825,252.562812 L196.27825,250.854271 L198,250.854271 L198,249.145729 Z M185.036247,249.145729 L185.036247,251.195978 L188.499999,251.195978 C188.418975,251.624792 188.125268,252.1608 187.618871,252.804018 C187.11247,253.447239 186.251604,253.768844 185.036247,253.768844 C183.99644,253.768844 183.118696,253.396989 182.402985,252.653267 C181.687274,251.909544 181.329424,251.02178 181.329424,249.989948 C181.329424,248.971518 181.687274,248.090456 182.402985,247.346733 C183.118696,246.603011 183.99644,246.231155 185.036247,246.231155 C185.643926,246.231155 186.146943,246.335006 186.545309,246.542713 C186.943677,246.750418 187.250887,246.961473 187.466951,247.175877 L189.107677,245.62814 C188.58102,245.105524 187.976727,244.703519 187.294777,244.422109 C186.612826,244.1407 185.85999,244 185.036247,244 C184.199002,244 183.412405,244.154102 182.67644,244.46231 C181.940472,244.770519 181.299043,245.195976 180.752132,245.738693 C180.205221,246.281408 179.776476,246.917919 179.465885,247.64824 C179.155293,248.378563 179,249.159124 179,249.989948 C179,250.834174 179.155293,251.621437 179.465885,252.351758 C179.776476,253.082081 180.205221,253.71524 180.752132,254.251256 C181.299043,254.787272 181.940472,255.212729 182.67644,255.527638 C183.412405,255.842548 184.199002,256 185.036247,256 C185.900502,256 186.690471,255.855948 187.406185,255.567839 C188.121895,255.27973 188.732939,254.881075 189.23934,254.371859 C189.745738,253.862644 190.137347,253.249585 190.41418,252.532664 C190.69101,251.815743 190.829424,251.028479 190.829424,250.170854 C190.829424,249.956447 190.826049,249.772193 190.819297,249.618089 C190.812546,249.463985 190.788913,249.306533 190.748401,249.145729 L185.036247,249.145729 Z" id="Fill-1"></path>
            </g>
        </g>
    </g>
</svg>