<?xml version="1.0" encoding="UTF-8"?>
<svg width="21px" height="14px" viewBox="0 0 21 14" version="1.1" xmlns="http://www.w3.org/2000/svg" xmlns:xlink="http://www.w3.org/1999/xlink">
    <!-- Generator: Sketch 52.5 (67469) - http://www.bohemiancoding.com/sketch -->
    <title>united-kingdom (2)</title>
    <desc>Created with Sketch.</desc>
    <g id="Page-1" stroke="none" stroke-width="1" fill="none" fill-rule="evenodd">
        <g id="1.-Trang-chủ--Ver3" transform="translate(-1265.000000, -171.000000)">
            <g id="Group-22" transform="translate(0.000000, 158.000000)">
                <g id="united-kingdom-(2)" transform="translate(1265.000000, 13.000000)">
                    <rect id="Rectangle" fill="#F0F0F0" x="0" y="0.0136315789" width="21" height="13.9728596"></rect>
                    <polygon id="Path" fill="#D80027" points="11.8125 0.0135087719 9.1875 0.0135087719 9.1875 5.68989474 0 5.68989474 0 8.30977778 9.1875 8.30977778 9.1875 13.9861637 11.8125 13.9861637 11.8125 8.30977778 21 8.30977778 21 5.68989474 11.8125 5.68989474"></polygon>
                    <g id="Group" transform="translate(12.755859, 9.415205)">
                        <polygon id="Path" fill="#003A80" points="3.39547852 0.0146549708 8.24414062 2.7031462 8.24414062 0.0146549708"></polygon>
                        <polygon id="Path" fill="#0052B4" points="0.0267421875 0.0146549708 8.24414062 4.57095906 8.24414062 3.28254971 2.35048242 0.0146549708"></polygon>
                        <polygon id="Path" fill="#003A80" points="6.05530078 4.57095906 0.0267421875 1.2279883 0.0267421875 4.57095906"></polygon>
                    </g>
                    <polygon id="Path" fill="#F0F0F0" points="12.7826016 9.42985965 21 13.9861637 21 12.6977544 15.1063418 9.42985965"></polygon>
                    <polygon id="Path" fill="#D80027" points="12.7826016 9.42985965 21 13.9861637 21 12.6977544 15.1063418 9.42985965"></polygon>
                    <g id="Group" transform="translate(0.000000, 9.415205)" fill="#003A80">
                        <polygon id="Path" points="3.70539258 0.0145730994 0 2.0691345 0 0.0145730994"></polygon>
                        <polygon id="Path" points="8.21739844 0.593976608 8.21739844 4.57091813 1.0455293 4.57091813"></polygon>
                    </g>
                    <polygon id="Path" fill="#D80027" points="5.8936582 9.42985965 0 12.6977544 0 13.9861637 0 13.9861637 8.21739844 9.42985965"></polygon>
                    <g id="Group">
                        <polygon id="Path" fill="#003A80" points="4.84866211 4.56981287 0 1.88132164 0 4.56981287"></polygon>
                        <polygon id="Path" fill="#0052B4" points="8.21739844 4.56981287 0 0.0135087719 0 1.30191813 5.8936582 4.56981287"></polygon>
                        <polygon id="Path" fill="#003A80" points="2.18883984 0.0135087719 8.21739844 3.35647953 8.21739844 0.0135087719"></polygon>
                    </g>
                    <polygon id="Path" fill="#F0F0F0" points="8.21739844 4.56981287 0 0.0135087719 0 1.30191813 5.8936582 4.56981287"></polygon>
                    <polygon id="Path" fill="#D80027" points="8.21739844 4.56981287 0 0.0135087719 0 1.30191813 5.8936582 4.56981287"></polygon>
                    <g id="Group" transform="translate(12.755859, 0.000000)" fill="#003A80">
                        <polygon id="Path" points="4.53874805 4.56989474 8.24414062 2.51533333 8.24414062 4.56989474"></polygon>
                        <polygon id="Path" points="0.0267421875 3.99049123 0.0267421875 0.0135497076 7.19861133 0.0135497076"></polygon>
                    </g>
                    <polygon id="Path" fill="#D80027" points="15.1063418 4.56981287 21 1.30191813 21 0.0135087719 21 0.0135087719 12.7826016 4.56981287"></polygon>
                </g>
            </g>
        </g>
    </g>
</svg>