<?xml version="1.0" encoding="UTF-8"?>
<svg width="22px" height="17px" viewBox="0 0 22 17" version="1.1" xmlns="http://www.w3.org/2000/svg" xmlns:xlink="http://www.w3.org/1999/xlink">
    <!-- Generator: Sketch 52.5 (67469) - http://www.bohemiancoding.com/sketch -->
    <title>Fill 1</title>
    <desc>Created with Sketch.</desc>
    <g id="Demo" stroke="none" stroke-width="1" fill="none" fill-rule="evenodd">
        <g id="01.-Trang-chủ---Mobile-Copy" transform="translate(-284.000000, -78.000000)" fill="#25873A">
            <path d="M285.1,80.125 L304.9,80.125 C305.19792,80.125 305.455729,80.0198592 305.673436,79.8095692 C305.891148,79.5992835 306,79.3502632 306,79.0625 C306,78.7747368 305.891148,78.5257165 305.673436,78.3154307 C305.455729,78.1051408 305.19792,78 304.9,78 L285.1,78 C284.802082,78 284.544272,78.1051408 284.326563,78.3154307 C284.108853,78.5257165 284,78.7747368 284,79.0625 C284,79.3502632 284.108853,79.5992835 284.326563,79.8095692 C284.544272,80.0198592 284.802082,80.125 285.1,80.125 Z M304.9,92.875 L285.1,92.875 C284.802082,92.875 284.544272,92.980142 284.326563,93.1904299 C284.108853,93.4007173 284,93.649738 284,93.9375 C284,94.225262 284.108853,94.4742826 284.326563,94.6845703 C284.544272,94.8948578 284.802082,95 285.1,95 L304.9,95 C305.19792,95 305.455729,94.8948578 305.673436,94.6845703 C305.891148,94.4742826 306,94.225262 306,93.9375 C306,93.649738 305.891148,93.4007173 305.673436,93.1904299 C305.455729,92.980142 305.19792,92.875 304.9,92.875 Z M304.9,85.4375 L285.1,85.4375 C284.802082,85.4375 284.544272,85.5426408 284.326563,85.7529308 C284.108853,85.9632165 284,86.2122368 284,86.5 C284,86.7877632 284.108853,87.0367835 284.326563,87.2470692 C284.544272,87.4573592 284.802082,87.5625 285.1,87.5625 L304.9,87.5625 C305.19792,87.5625 305.455729,87.4573592 305.673436,87.2470692 C305.891148,87.0367835 306,86.7877632 306,86.5 C306,86.2122368 305.891148,85.9632165 305.673436,85.7529308 C305.455729,85.5426408 305.19792,85.4375 304.9,85.4375 Z" id="Fill-1"></path>
        </g>
    </g>
</svg>