<?xml version="1.0" encoding="UTF-8"?>
<svg width="12px" height="12px" viewBox="0 0 12 12" version="1.1" xmlns="http://www.w3.org/2000/svg" xmlns:xlink="http://www.w3.org/1999/xlink">
    <!-- Generator: Sketch 52.5 (67469) - http://www.bohemiancoding.com/sketch -->
    <title>Fill 1</title>
    <desc>Created with Sketch.</desc>
    <g id="Page-1" stroke="none" stroke-width="1" fill="none" fill-rule="evenodd">
        <g id="1.-Trang-chủ--Ver3-Copy-2" transform="translate(-154.000000, -3222.000000)" fill="#FFFFFF">
            <g id="Group-20" transform="translate(0.000000, 3030.000000)">
                <path d="M166,201.477272 C166,201.630683 165.971591,201.830965 165.914772,202.078126 C165.857954,202.325285 165.798297,202.519886 165.735795,202.661932 C165.616477,202.946024 165.269889,203.247157 164.696024,203.565341 C164.161929,203.855115 163.633525,204 163.110795,204 C162.957386,204 162.80682,203.990057 162.659091,203.97017 C162.511363,203.950284 162.348012,203.914773 162.169035,203.863636 C161.990056,203.8125 161.856536,203.771307 161.768465,203.740057 C161.680397,203.708807 161.522729,203.650569 161.295456,203.565341 C161.06818,203.480113 160.928977,203.428977 160.877842,203.411932 C160.321019,203.213067 159.823865,202.977274 159.386365,202.704545 C158.664768,202.255679 157.914776,201.642049 157.136364,200.863636 C156.357951,200.085224 155.744321,199.335232 155.295455,198.613635 C155.022726,198.176135 154.786933,197.678981 154.588068,197.122158 C154.571023,197.071023 154.519887,196.93182 154.434659,196.704544 C154.349431,196.477271 154.291193,196.319603 154.259943,196.231535 C154.228693,196.143464 154.1875,196.009944 154.136364,195.830965 C154.085227,195.651988 154.049716,195.488637 154.02983,195.340909 C154.009943,195.19318 154,195.042614 154,194.889205 C154,194.366475 154.144885,193.838071 154.434659,193.303976 C154.752843,192.730111 155.053976,192.383523 155.338068,192.264205 C155.480114,192.201703 155.674715,192.142046 155.921874,192.085228 C156.169035,192.028409 156.369317,192 156.522728,192 C156.602272,192 156.661931,192.008522 156.701705,192.025568 C156.803977,192.059659 156.954545,192.275566 157.15341,192.673294 C157.21591,192.78125 157.301135,192.934658 157.409091,193.133523 C157.517046,193.332387 157.616477,193.512783 157.707386,193.674716 C157.798297,193.836649 157.886363,193.988635 157.971591,194.130681 C157.988637,194.153409 158.038352,194.224431 158.120739,194.343749 C158.203125,194.463069 158.264205,194.563919 158.303977,194.646306 C158.343751,194.728692 158.363636,194.809659 158.363636,194.889205 C158.363636,195.002842 158.282671,195.144886 158.120739,195.315341 C157.958806,195.485796 157.782671,195.642044 157.592329,195.784091 C157.401989,195.926137 157.225854,196.076703 157.063921,196.235796 C156.901988,196.394886 156.821024,196.525567 156.821024,196.627841 C156.821024,196.678978 156.835227,196.742898 156.863636,196.819601 C156.892046,196.896307 156.916194,196.954545 156.936079,196.994318 C156.955966,197.034092 156.995738,197.102273 157.055397,197.198863 C157.115058,197.295454 157.147728,197.349431 157.15341,197.360794 C157.585229,198.139209 158.079542,198.806814 158.636363,199.363637 C159.193186,199.920458 159.860791,200.414771 160.639206,200.84659 C160.650569,200.852272 160.704546,200.884942 160.801137,200.944603 C160.897727,201.004262 160.965908,201.044034 161.005682,201.063921 C161.045455,201.083806 161.103693,201.107954 161.180399,201.136364 C161.257102,201.164773 161.321022,201.178976 161.372159,201.178976 C161.474433,201.178976 161.605114,201.098012 161.764204,200.936079 C161.923297,200.774146 162.073863,200.598011 162.215909,200.407671 C162.357956,200.217329 162.514204,200.041194 162.684659,199.879261 C162.855114,199.717329 162.997158,199.636364 163.110795,199.636364 C163.190341,199.636364 163.271308,199.656249 163.353694,199.696023 C163.436081,199.735795 163.536931,199.796875 163.656251,199.879261 C163.775569,199.961648 163.846591,200.011363 163.869319,200.028409 C164.011365,200.113637 164.163351,200.201703 164.325284,200.292614 C164.487217,200.383523 164.667613,200.482954 164.866477,200.590909 C165.065342,200.698865 165.21875,200.78409 165.326706,200.84659 C165.724434,201.045455 165.940341,201.196023 165.974432,201.298295 C165.991478,201.338069 166,201.397728 166,201.477272 Z" id="Fill-1"></path>
            </g>
        </g>
    </g>
</svg>