<?xml version="1.0" encoding="UTF-8"?>
<svg width="9px" height="12px" viewBox="0 0 9 12" version="1.1" xmlns="http://www.w3.org/2000/svg" xmlns:xlink="http://www.w3.org/1999/xlink">
    <!-- Generator: Sketch 52.5 (67469) - http://www.bohemiancoding.com/sketch -->
    <title>Fill 1</title>
    <desc>Created with Sketch.</desc>
    <g id="Page-1" stroke="none" stroke-width="1" fill="none" fill-rule="evenodd">
        <g id="1.-Trang-chủ--Ver3-Copy-2" transform="translate(-153.000000, -3170.000000)" fill="#FFFFFF">
            <g id="Group-20" transform="translate(0.000000, 3030.000000)">
                <path d="M154.32,141.32 C155.200005,140.439995 156.259994,140 157.5,140 C158.740006,140 159.799995,140.439995 160.68,141.32 C161.560005,142.200005 162,143.259994 162,144.5 C162,145.060002 161.845002,145.699997 161.535,146.42 C161.224998,147.140003 160.850002,147.814997 160.41,148.445 C159.969998,149.075003 159.530002,149.664997 159.09,150.215 C158.649998,150.765003 158.275002,151.199998 157.965,151.52 L157.5,152 C157.38,151.879999 157.2175,151.712501 157.0125,151.4975 C156.8075,151.282499 156.447503,150.862503 155.9325,150.2375 C155.417497,149.612496 154.962502,149.007503 154.5675,148.4225 C154.172498,147.837497 153.812502,147.177503 153.4875,146.4425 C153.162498,145.707497 153,145.060002 153,144.5 C153,143.259994 153.439996,142.200005 154.32,141.32 Z M159.615,142.385 C159.024998,141.794997 158.320004,141.5 157.5,141.5 C156.679996,141.5 155.975002,141.794997 155.385,142.385 C154.794997,142.975002 154.5,143.679996 154.5,144.5 C154.5,145.320004 154.794997,146.024998 155.385,146.615 C155.975002,147.205003 156.679996,147.5 157.5,147.5 C158.320004,147.5 159.024998,147.205003 159.615,146.615 C160.205003,146.024998 160.5,145.320004 160.5,144.5 C160.5,143.679996 160.205003,142.975002 159.615,142.385 Z" id="Fill-1"></path>
            </g>
        </g>
    </g>
</svg>