<?xml version="1.0" encoding="UTF-8"?>
<svg width="11px" height="13px" viewBox="0 0 11 13" version="1.1" xmlns="http://www.w3.org/2000/svg" xmlns:xlink="http://www.w3.org/1999/xlink">
    <!-- Generator: Sketch 52.5 (67469) - http://www.bohemiancoding.com/sketch -->
    <title>Fill 1</title>
    <desc>Created with Sketch.</desc>
    <g id="Page-1" stroke="none" stroke-width="1" fill="none" fill-rule="evenodd">
        <g id="1.-Trang-chủ--new-update" transform="translate(-964.000000, -346.000000)" fill="#6B6B6B">
            <path d="M971.333333,346 L967.666667,346 L967.666667,347.233258 L971.333333,347.233258 L971.333333,346 Z M968.884114,354.052456 L970.115886,354.052456 L970.115886,350.338171 L968.884114,350.338171 L968.884114,354.052456 Z M973.796875,349.960937 L974.670572,349.075893 C974.536891,348.92113 974.398438,348.768788 974.255208,348.618861 C974.111979,348.468936 973.959202,348.331102 973.796875,348.205357 L972.9375,349.075893 C972.460067,348.698659 971.930124,348.401228 971.347655,348.183593 C970.765189,347.965958 970.149308,347.857143 969.5,347.857143 C968.736107,347.857143 968.022355,348.00223 967.358723,348.292411 C966.695092,348.582591 966.112633,348.981582 965.611328,349.489397 C965.110024,349.997212 964.716147,350.587236 964.429688,351.259486 C964.143228,351.931737 964,352.654758 964,353.428571 C964,354.202385 964.143228,354.925406 964.429688,355.597657 C964.716147,356.269907 965.107636,356.859931 965.604167,357.367746 C966.100698,357.875561 966.683157,358.274552 967.351562,358.564732 C968.019968,358.854912 968.736107,359 969.5,359 C970.263893,359 970.980032,358.854912 971.648438,358.564732 C972.316843,358.274552 972.899302,357.875561 973.395833,357.367746 C973.892364,356.859931 974.283852,356.269907 974.570312,355.597657 C974.856773,354.925406 975,354.202385 975,353.428571 C975,352.770831 974.89258,352.146952 974.677735,351.556921 C974.46289,350.966888 974.169273,350.434898 973.796875,349.960937 Z M969.5,357.766741 C968.907984,357.766741 968.351782,357.653089 967.831381,357.425781 C967.310978,357.198474 966.857424,356.888952 966.470703,356.49721 C966.083983,356.105466 965.77843,355.646022 965.554036,355.118861 C965.329643,354.591702 965.217448,354.028276 965.217448,353.428571 C965.217448,352.828867 965.329643,352.265441 965.554036,351.738282 C965.77843,351.211121 966.083983,350.751676 966.470703,350.359933 C966.857424,349.968191 967.310978,349.65867 967.831381,349.431361 C968.351782,349.204054 968.907984,349.090401 969.5,349.090401 C970.092016,349.090401 970.648218,349.204054 971.168619,349.431361 C971.689022,349.65867 972.142576,349.968191 972.529297,350.359933 C972.916017,350.751676 973.221569,351.211121 973.445964,351.738282 C973.670357,352.265441 973.782553,352.828867 973.782553,353.428571 C973.782553,354.028276 973.670357,354.591702 973.445964,355.118861 C973.221569,355.646022 972.916017,356.105466 972.529297,356.49721 C972.142576,356.888952 971.689022,357.198474 971.168619,357.425781 C970.648218,357.653089 970.092016,357.766741 969.5,357.766741 Z" id="Fill-1"></path>
        </g>
    </g>
</svg>