<?xml version="1.0" encoding="UTF-8"?>
<svg width="43px" height="17px" viewBox="0 0 43 17" version="1.1" xmlns="http://www.w3.org/2000/svg" xmlns:xlink="http://www.w3.org/1999/xlink">
    <!-- Generator: Sketch 52.5 (67469) - http://www.bohemiancoding.com/sketch -->
    <title>Group 25</title>
    <desc>Created with Sketch.</desc>
    <g id="Demo" stroke="none" stroke-width="1" fill="none" fill-rule="evenodd">
        <g id="Group-25">
            <path d="M1.1,2.125 L20.9,2.125 C21.1979196,2.125 21.4557288,2.01985925 21.6734364,1.80956925 C21.8911484,1.5992835 22,1.35026325 22,1.0625 C22,0.77473675 21.8911484,0.5257165 21.6734364,0.31543075 C21.4557288,0.10514075 21.1979196,0 20.9,0 L1.1,0 C0.80208172,0 0.54427208,0.10514075 0.3265625,0.31543075 C0.108853096,0.5257165 0,0.77473675 0,1.0625 C0,1.35026325 0.108853096,1.5992835 0.3265625,1.80956925 C0.54427208,2.01985925 0.80208172,2.125 1.1,2.125 Z M20.9,14.875 L1.1,14.875 C0.80208172,14.875 0.54427208,14.980142 0.3265625,15.1904299 C0.108853096,15.4007173 0,15.649738 0,15.9375 C0,16.225262 0.108853096,16.4742826 0.3265625,16.6845703 C0.54427208,16.8948578 0.80208172,17 1.1,17 L20.9,17 C21.1979196,17 21.4557288,16.8948578 21.6734364,16.6845703 C21.8911484,16.4742826 22,16.225262 22,15.9375 C22,15.649738 21.8911484,15.4007173 21.6734364,15.1904299 C21.4557288,14.980142 21.1979196,14.875 20.9,14.875 Z M20.9,7.4375 L1.1,7.4375 C0.80208172,7.4375 0.54427208,7.54264075 0.3265625,7.75293075 C0.108853096,7.9632165 0,8.21223675 0,8.5 C0,8.78776325 0.108853096,9.0367835 0.3265625,9.24706925 C0.54427208,9.45735925 0.80208172,9.5625 1.1,9.5625 L20.9,9.5625 C21.1979196,9.5625 21.4557288,9.45735925 21.6734364,9.24706925 C21.8911484,9.0367835 22,8.78776325 22,8.5 C22,8.21223675 21.8911484,7.9632165 21.6734364,7.75293075 C21.4557288,7.54264075 21.1979196,7.4375 20.9,7.4375 Z" id="Fill-1-Copy-3" fill="#25873A"></path>
            <path d="M42.3248705,0.6751295 L42.3248705,0.6751295 C41.9520068,0.302265773 41.3474752,0.302265773 40.9746115,0.6751295 L34.5,7.149741 L28.0253902,0.675129921 C27.6525263,0.302265915 27.0479944,0.302265727 26.6751302,0.6751295 L26.6751302,0.6751295 C26.3022663,1.04799303 26.302266,1.65252458 26.6751295,2.0253885 C26.6751296,2.02538862 26.6751297,2.02538874 26.6751299,2.02538885 L33.149741,8.5 L26.6751303,14.9746094 C26.3022662,15.3474735 26.3022661,15.9520056 26.6751301,16.3248697 C26.6751302,16.3248697 26.6751302,16.3248698 26.6751302,16.3248698 L26.6751302,16.3248698 C27.0479943,16.6977339 27.6525264,16.6977339 28.0253905,16.3248698 C28.0253905,16.3248698 28.0253905,16.3248697 28.0253906,16.3248697 L34.5,9.850259 L40.9746111,16.3248701 C41.3474749,16.6977339 41.9520064,16.6977339 42.3248701,16.3248701 C42.3248703,16.32487 42.3248704,16.3248699 42.3248705,16.3248698 L42.3248705,16.3248698 C42.6977343,15.9520056 42.6977341,15.3474737 42.3248701,14.9746098 L35.850259,8.5 L42.3248705,2.0253885 C42.6977342,1.65252477 42.6977342,1.04799323 42.3248705,0.6751295 Z" id="Fill-1-Copy-8" fill="#FFFFFF"></path>
        </g>
    </g>
</svg>