<?xml version="1.0" encoding="UTF-8"?>
<svg width="17px" height="12px" viewBox="0 0 17 12" version="1.1" xmlns="http://www.w3.org/2000/svg" xmlns:xlink="http://www.w3.org/1999/xlink">
    <!-- Generator: Sketch 52.5 (67469) - http://www.bohemiancoding.com/sketch -->
    <title>Fill 1</title>
    <desc>Created with Sketch.</desc>
    <g id="Page-1" stroke="none" stroke-width="1" fill="none" fill-rule="evenodd">
        <g id="1.-Trang-chủ--Ver3-Copy-2" transform="translate(-213.000000, -3274.000000)" fill="#FFFFFF">
            <path d="M219.745075,3282.20952 L224.336336,3279.82857 L219.745075,3277.41905 L219.745075,3282.20952 Z M221.5,3274 C222.562445,3274 223.588514,3274.01428 224.578233,3274.04286 C225.567952,3274.07143 226.293628,3274.10159 226.755287,3274.13333 L227.447771,3274.17143 C227.454094,3274.17143 227.507849,3274.17619 227.609034,3274.18572 C227.710219,3274.19524 227.782945,3274.20476 227.827215,3274.21428 C227.871482,3274.22381 227.94579,3274.23809 228.050136,3274.25714 C228.154485,3274.27619 228.244601,3274.30159 228.320489,3274.33333 C228.396379,3274.36508 228.484915,3274.40635 228.586099,3274.45714 C228.687286,3274.50794 228.785307,3274.56984 228.880168,3274.64286 C228.975029,3274.71587 229.066728,3274.8 229.155266,3274.89524 C229.19321,3274.93333 229.24222,3274.99206 229.302299,3275.07143 C229.362378,3275.15079 229.454075,3275.33651 229.577395,3275.62857 C229.700714,3275.92064 229.784507,3276.24127 229.828777,3276.59048 C229.879368,3276.99683 229.918895,3277.43016 229.947351,3277.89048 C229.97581,3278.3508 229.993202,3278.71111 229.999526,3278.97143 L229.999526,3279.35238 L229.999526,3280.64762 C230.005849,3281.56826 229.948934,3282.48889 229.828777,3283.40952 C229.784507,3283.75873 229.705457,3284.0746 229.591625,3284.35714 C229.477791,3284.63968 229.376606,3284.83492 229.288071,3284.94286 L229.155266,3285.10476 C229.066728,3285.2 228.975029,3285.28413 228.880168,3285.35714 C228.785307,3285.43016 228.687286,3285.49048 228.586099,3285.5381 C228.484915,3285.58571 228.396379,3285.6254 228.320489,3285.65714 C228.244601,3285.68889 228.154485,3285.71429 228.050136,3285.73333 C227.94579,3285.75238 227.869902,3285.76667 227.82247,3285.77619 C227.77504,3285.78571 227.702314,3285.79524 227.604291,3285.80476 C227.506268,3285.81429 227.454094,3285.81905 227.447771,3285.81905 C225.860427,3285.93968 223.877855,3286 221.5,3286 C220.190914,3285.9873 219.054179,3285.96667 218.089754,3285.9381 C217.125332,3285.90952 216.491353,3285.88571 216.187796,3285.86667 L215.722979,3285.82857 L215.38148,3285.79048 C215.153812,3285.75873 214.981484,3285.72698 214.864489,3285.69524 C214.747493,3285.66349 214.586231,3285.59683 214.380699,3285.49524 C214.175166,3285.39365 213.996513,3285.26349 213.844735,3285.10476 C213.806791,3285.06667 213.75778,3285.00794 213.697701,3284.92857 C213.637622,3284.84921 213.545924,3284.66349 213.422605,3284.37143 C213.299285,3284.07936 213.215492,3283.75873 213.171224,3283.40952 C213.120631,3283.00317 213.081106,3282.56984 213.052648,3282.10952 C213.024189,3281.6492 213.006798,3281.28889 213.000474,3281.02857 L213.000474,3280.64762 L213.000474,3279.35238 C212.99415,3278.43174 213.051066,3277.51111 213.171224,3276.59048 C213.215492,3276.24127 213.294542,3275.9254 213.408376,3275.64286 C213.522209,3275.36032 213.623393,3275.16508 213.71193,3275.05714 L213.844735,3274.89524 C213.933272,3274.8 214.02497,3274.71587 214.119831,3274.64286 C214.214693,3274.56984 214.312715,3274.50794 214.4139,3274.45714 C214.515085,3274.40635 214.603621,3274.36508 214.67951,3274.33333 C214.755399,3274.30159 214.845516,3274.27619 214.949863,3274.25714 C215.054211,3274.23809 215.128518,3274.22381 215.172785,3274.21428 C215.217055,3274.20476 215.289781,3274.19524 215.390966,3274.18572 C215.492151,3274.17619 215.545906,3274.17143 215.55223,3274.17143 C217.139573,3274.05714 219.122145,3274 221.5,3274 Z" id="Fill-1"></path>
        </g>
    </g>
</svg>